# xmcd
#
# Track frame offsets: 
#        150
#        20308
#        39417
#        60065
#        77683
#        93492
#        109665
#        127990
#        148756
#        167856
#
# Disc length: 2482 seconds
#
# Revision: 11
# Processed by: cddbd v1.5.2PL0 Copyright (c) Steve Scherf et al.
# Submitted via: ExactAudioCopy v1.3
#
DISCID=7409b00a
DTITLE=Enrique Iglesias - Vivir
DYEAR=1997
DGENRE=Latin
TTITLE0=Enamorado Por Primera Vez
TTITLE1=Al Despertar
TTITLE2=Lluvia Cae
TTITLE3=Tu Vacio
TTITLE4=Solo En Ti (Only You)
TTITLE5=Miente
TTITLE6=Vivire Y Morire
TTITLE7=Volvere
TTITLE8=El Muro
TTITLE9=Revolucion
EXTD=
EXTT0=
EXTT1=
EXTT2=
EXTT3=
EXTT4=
EXTT5=
EXTT6=
EXTT7=
EXTT8=
EXTT9=
PLAYORDER=
